<svg width="24" height="24" viewBox="0 0 24 24" fill="none" xmlns="http://www.w3.org/2000/svg">
<path d="M19 12C19 15.866 15.866 19 12 19C8.13401 19 5 15.866 5 12C5 8.13401 8.13401 5 12 5C15.866 5 19 8.13401 19 12Z" fill="#FF5A4B"/>
<path fill-rule="evenodd" clip-rule="evenodd" d="M13.5048 14.495C13.7782 14.7683 14.2214 14.7683 14.4948 14.495C14.7681 14.2216 14.7681 13.7784 14.4948 13.505L12.9898 12L14.4948 10.495C14.7681 10.2216 14.7681 9.77838 14.4948 9.50501C14.2214 9.23165 13.7782 9.23165 13.5048 9.50502L11.9998 11.01L10.4948 9.50501C10.2214 9.23165 9.7782 9.23165 9.50483 9.50501C9.23146 9.77838 9.23146 10.2216 9.50483 10.495L11.0099 12L9.50486 13.505C9.2315 13.7784 9.2315 14.2216 9.50487 14.495C9.77824 14.7683 10.2215 14.7683 10.4948 14.495L11.9998 12.9899L13.5048 14.495Z" fill="white"/>
</svg>
