<svg width="16" height="16" viewBox="0 0 16 16" fill="none" xmlns="http://www.w3.org/2000/svg">
<path d="M7.33334 7.31956C7.33334 6.95137 7.63182 6.65289 8.00001 6.65289C8.3682 6.65289 8.66668 6.95137 8.66668 7.31956V11.3196C8.66668 11.6877 8.3682 11.9862 8.00001 11.9862C7.63182 11.9862 7.33334 11.6877 7.33334 11.3196V7.31956Z" fill="#3A86FF" fill-opacity="0.8"/>
<path d="M8.00001 4.03408C7.63182 4.03408 7.33334 4.33255 7.33334 4.70074C7.33334 5.06893 7.63182 5.36741 8.00001 5.36741C8.3682 5.36741 8.66668 5.06893 8.66668 4.70074C8.66668 4.33255 8.3682 4.03408 8.00001 4.03408Z" fill="#3A86FF" fill-opacity="0.8"/>
<path fill-rule="evenodd" clip-rule="evenodd" d="M8.00001 1.33331C4.31811 1.33331 1.33334 4.31808 1.33334 7.99998C1.33334 11.6819 4.31811 14.6666 8.00001 14.6666C11.6819 14.6666 14.6667 11.6819 14.6667 7.99998C14.6667 4.31808 11.6819 1.33331 8.00001 1.33331ZM2.66668 7.99998C2.66668 10.9455 5.05449 13.3333 8.00001 13.3333C10.9455 13.3333 13.3333 10.9455 13.3333 7.99998C13.3333 5.05446 10.9455 2.66665 8.00001 2.66665C5.05449 2.66665 2.66668 5.05446 2.66668 7.99998Z" fill="#3A86FF" fill-opacity="0.8"/>
</svg>
