<svg width="24" height="24" viewBox="0 0 24 24" fill="none" xmlns="http://www.w3.org/2000/svg">
<path fill-rule="evenodd" clip-rule="evenodd" d="M7.6024 6.59904C7.6024 6.26767 7.33378 5.99903 7.00241 5.99902C6.67104 5.99902 6.4024 6.26764 6.4024 6.59901L6.40234 9.26977C6.40233 9.87729 6.89482 10.3698 7.50234 10.3698H10.1732C10.5045 10.3698 10.7732 10.1012 10.7732 9.76979C10.7732 9.43842 10.5045 9.16979 10.1732 9.16979L8.09197 9.16979C8.96827 7.97469 10.3847 7.19902 11.9826 7.19902C14.6439 7.19902 16.7985 9.35006 16.7985 12C16.7985 14.6499 14.6439 16.801 11.9826 16.801C9.50359 16.801 7.46336 14.9339 7.19637 12.5364C7.15969 12.2071 6.86298 11.9699 6.53364 12.0065C6.20431 12.0432 5.96706 12.3399 6.00374 12.6693C6.33793 15.6701 8.88807 18.001 11.9826 18.001C15.3035 18.001 17.9985 15.3158 17.9985 12C17.9985 8.68419 15.3035 5.99902 11.9826 5.99902C10.2559 5.99902 8.69929 6.7248 7.60237 7.88666L7.6024 6.59904Z" />
</svg>
