<svg width="24" height="24" viewBox="0 0 24 24" fill="none" xmlns="http://www.w3.org/2000/svg">
<path d="M15.8016 7.20816C16.075 6.93469 16.5184 6.93469 16.7919 7.20816C17.0654 7.48164 17.0654 7.92502 16.7919 8.19849L8.19852 16.7919C7.92505 17.0653 7.48166 17.0653 7.20819 16.7919C6.93472 16.5184 6.93472 16.075 7.20819 15.8015L15.8016 7.20816Z" />
<path d="M16.7918 15.8015C17.0653 16.075 17.0653 16.5184 16.7918 16.7919C16.5183 17.0653 16.075 17.0653 15.8015 16.7919L7.2081 8.19849C6.93463 7.92502 6.93463 7.48163 7.2081 7.20816C7.48157 6.93469 7.92496 6.93469 8.19843 7.20816L16.7918 15.8015Z" />
</svg>
