<svg width="24" height="24" viewBox="0 0 24 24" fill="none" xmlns="http://www.w3.org/2000/svg">
<path d="M19 12C19 15.866 15.866 19 12 19C8.13401 19 5 15.866 5 12C5 8.13401 8.13401 5 12 5C15.866 5 19 8.13401 19 12Z" fill="#00D398"/>
<path fill-rule="evenodd" clip-rule="evenodd" d="M15.4951 9.69685C15.7685 9.97021 15.7685 10.4134 15.4951 10.6868L11.6348 14.5472C11.3639 14.818 10.9256 14.8209 10.6512 14.5535L8.51125 12.4679C8.23438 12.1981 8.22867 11.7549 8.4985 11.4781C8.76832 11.2012 9.2115 11.1955 9.48836 11.4653L11.1335 13.0686L14.5052 9.69685C14.7785 9.42348 15.2217 9.42348 15.4951 9.69685Z" fill="white"/>
</svg>
